PathFileType	4	(X/Y/Z)	pose_F01_0-83.trc
DataRate	CameraRate	NumFrames	NumMarkers	Units	OrigDataRate	OrigDataStartFrame	OrigNumFrames
30	30	12	21	m	30	13	83
Frame#	Time	CHip			RHip			RKnee			RAnkle			RBigToe			RSmallToe			RHeel			LHip			LKnee			LAnkle			LBigToe			LSmallToe			LHeel			Neck			Nose			RShoulder			RElbow			RWrist			LShoulder			LElbow			LWrist			
		X1	Y1	Z1	X2	Y2	Z2	X3	Y3	Z3	X4	Y4	Z4	X5	Y5	Z5	X6	Y6	Z6	X7	Y7	Z7	X8	Y8	Z8	X9	Y9	Z9	X10	Y10	Z10	X11	Y11	Z11	X12	Y12	Z12	X13	Y13	Z13	X14	Y14	Z14	X15	Y15	Z15	X16	Y16	Z16	X17	Y17	Z17	X18	Y18	Z18	X19	Y19	Z19	X20	Y20	Z20	X21	Y21	Z21	
13	0.43333333333333335	-0.2297430794696606	1.8199970486985972	-0.4762230276346129	-0.24646391391851938	1.8190199865180274	-0.4080132733387125	-0.2527965491659693	1.6739183738579753	-0.4113090556152132													-0.2139476433784983	1.8233373230306866	-0.5421656155583201	-0.2231620965796444	1.676178370525862	-0.5387298849196884				-0.35335769709935605	1.4831912087162533	-0.9785916171265376							-0.2315039959510441	1.9928540326085735	-0.5185728054770619	-0.21593938939332238	2.0641194578814077	-0.48591137222953	-0.25587087230530525	1.9892981213286494	-0.4175275702307412	-0.2642577690682107	1.8946346393450215	-0.3660822699288295	-0.25780886088438987	1.8138706069503234	-0.32960145975858823	-0.2060078253470888	1.9974426682348552	-0.6179162219313072	-0.19561254399229255	1.9031270564970526	-0.6300702215739794	-0.18682520708532876	1.8143573667566208	-0.6216795154680944
14	0.4666666666666667	-0.2297430794696606	1.8199970486985972	-0.4762230276346129	-0.24646391391851938	1.8190199865180274	-0.4080132733387125	-0.2527965491659693	1.6739183738579753	-0.4113090556152132													-0.2139476433784983	1.8233373230306866	-0.5421656155583201	-0.2231620965796444	1.676178370525862	-0.5387298849196884				-0.35335769709935605	1.4831912087162533	-0.9785916171265376							-0.2315039959510441	1.9928540326085735	-0.5185728054770619	-0.21593938939332238	2.0641194578814077	-0.48591137222953	-0.25587087230530525	1.9892981213286494	-0.4175275702307412	-0.2642577690682107	1.8946346393450215	-0.3660822699288295	-0.25780886088438987	1.8138706069503234	-0.32960145975858823	-0.2060078253470888	1.9974426682348552	-0.6179162219313072	-0.19561254399229255	1.9031270564970526	-0.6300702215739794	-0.18682520708532876	1.8143573667566208	-0.6216795154680944
15	0.5	-0.2297430794696606	1.8199970486985972	-0.4762230276346129	-0.24646391391851938	1.8190199865180274	-0.4080132733387125	-0.2527965491659693	1.6739183738579753	-0.4113090556152132													-0.2139476433784983	1.8233373230306866	-0.5421656155583201	-0.2231620965796444	1.676178370525862	-0.5387298849196884				-0.35335769709935605	1.4831912087162533	-0.9785916171265376							-0.2315039959510441	1.9928540326085735	-0.5185728054770619	-0.21593938939332238	2.0641194578814077	-0.48591137222953	-0.25587087230530525	1.9892981213286494	-0.4175275702307412	-0.2642577690682107	1.8946346393450215	-0.3660822699288295	-0.25780886088438987	1.8138706069503234	-0.32960145975858823	-0.2060078253470888	1.9974426682348552	-0.6179162219313072	-0.19561254399229255	1.9031270564970526	-0.6300702215739794	-0.18682520708532876	1.8143573667566208	-0.6216795154680944
16	0.5333333333333333	-0.23013687256687088	1.824848406472531	-0.47675496189520206	-0.24661255743960592	1.8209463539572606	-0.40833026182951876	-0.2527965491659693	1.6739183738579753	-0.4113090556152132													-0.21433203593219874	1.8277358573797933	-0.5426294080392463	-0.2213580665834261	1.6800431707620145	-0.5321885916078086				-0.35335769709935605	1.4831912087162533	-0.9785916171265376							-0.23058494957491718	1.9925888683805513	-0.5153603984471168	-0.21595119628162662	2.0654558795835833	-0.4863841687161139	-0.25645608786979784	1.9888742780091395	-0.4118171665676697	-0.2678727528185697	1.8975097834826389	-0.3620855985840854	-0.2565530622826154	1.814869622594865	-0.32652260058576166	-0.2051441604731862	1.99616042443872	-0.614456733199285	-0.19469320595894266	1.9061863898534739	-0.6272375292417192	-0.18685521129691668	1.8220119267574568	-0.6225097272690293
17	0.5666666666666667	-0.2302543205102932	1.8248664270701487	-0.480449643053014	-0.24673067948527974	1.822669086470223	-0.41249269955817436	-0.2527965491659693	1.6739183738579753	-0.4113090556152132													-0.2145862077410302	1.8295604213296188	-0.5464822355305576	-0.21353248103540184	1.681484139522408	-0.5275044831194968				-0.35335769709935605	1.4831912087162533	-0.9785916171265376							-0.22763608040375932	1.99273787800233	-0.514491736675346	-0.2149757636061714	2.0654142117873717	-0.4833968340063361	-0.2534903911671669	1.991202491320295	-0.4111684393706211	-0.27151205472296974	1.9031216404173354	-0.35876919152121	-0.24684620222759754	1.831898773531443	-0.32580263201533316	-0.20309043492541	1.9973687786287928	-0.617055302080512	-0.19629751426798314	1.9045837838232307	-0.6333686890943675	-0.1856185191465151	1.8189388192957743	-0.6277607342592996
18	0.6	-0.23099719839444105	1.8136699259337123	-0.47888048198334005	-0.24864200754378807	1.8132929740918398	-0.41408878321122217	-0.2527965491659693	1.6739183738579753	-0.4113090556152132													-0.21386343136462377	1.8174802141637818	-0.5504772331598049	-0.21081357516892218	1.6771865389026004	-0.5167593940445637				-0.35335769709935605	1.4831912087162533	-0.9785916171265376							-0.22849623939111988	1.9904931445492233	-0.5172838350500433	-0.213960214529666	2.062778805000994	-0.4797240033968671	-0.25281779200872045	1.9878011581759547	-0.41622077120035433	-0.27478307810430325	1.9074311051907953	-0.36691382004626966	-0.2394086839802636	1.8931025372981096	-0.34679080300288395	-0.2008730589972273	1.9938727904691214	-0.6185248041956714	-0.19192401582808546	1.9008095222204209	-0.6462304665027181	-0.1842877647402237	1.8127943097342567	-0.6325160158892762
19	0.6333333333333333	-0.2275604835653953	1.8160921367571699	-0.4868640645156315	-0.24690538731324924	1.8144478263309978	-0.4200550815070039	-0.2527965491659693	1.6739183738579753	-0.4113090556152132													-0.21142925625867998	1.8176910022296826	-0.5529140104226465	-0.21275726826178948	1.6711575119648727	-0.5230851918293487				-0.35335769709935605	1.4831912087162533	-0.9785916171265376							-0.22541613787865408	1.9883965239189991	-0.5240104784178595	-0.2111809198012807	2.0586892670611503	-0.4776840195209377	-0.25198022130253905	1.985598326115701	-0.42932569299471585	-0.2589581451226532	1.9041503875358268	-0.35114766302642747	-0.23197116573292964	1.9543063010647763	-0.36777897399043474	-0.19568210263937647	1.9916614253429838	-0.6191729128545441	-0.18740970551126054	1.8989662435713413	-0.6504058070885169	-0.17891314352729407	1.8071587174052006	-0.6458284890620615
20	0.6666666666666666	-0.23031186747445911	1.8197178323916925	-0.49730705143974324	-0.2459064611713083	1.8179682520659144	-0.4262778072513316	-0.2527965491659693	1.6739183738579753	-0.4113090556152132													-0.2133341058335681	1.8195713690580229	-0.5597860714807965	-0.21359314236916624	1.6758965577176705	-0.5269780194577419				-0.35335769709935605	1.4831912087162533	-0.9785916171265376							-0.2244013683778407	1.989302309956053	-0.5299651659814311	-0.2120956388503135	2.056392194259915	-0.4804032611068909	-0.24902767024712827	1.9884018698766972	-0.437550388955712	-0.2551995215785471	1.9147996212293206	-0.36608066891684815	-0.21867356834933546	1.9807386598845986	-0.39861119406020173	-0.19460009910950554	1.9919893178545511	-0.6249307501401421	-0.18701457901314777	1.8995568360671995	-0.6590486827635891	-0.17861717973824848	1.8077041355179337	-0.6668105161451428
21	0.7	-0.23211693593299035	1.8219514218881885	-0.5043652170711131	-0.24894547541678386	1.8214469502005162	-0.43666283182045795	-0.2527965491659693	1.6739183738579753	-0.4113090556152132													-0.2128507398888555	1.8214800032001643	-0.5687933307809191	-0.21422173121841184	1.6776576072008407	-0.5294266330987739				-0.35335769709935605	1.4831912087162533	-0.9785916171265376							-0.22630436148392705	1.990836199175424	-0.5368439409480018	-0.21111471693579964	2.057603127236535	-0.4856589016618365	-0.25030446769578474	1.9915368313531001	-0.4501851714167516	-0.25403664601111997	1.9196176959533535	-0.3638612228789737	-0.22313509692585204	2.00042662145934	-0.41694808928273397	-0.19632751320518976	1.9919970802245301	-0.6312220022671593	-0.18582233237325213	1.8979054203224646	-0.6643747685282972	-0.17654736263406914	1.810278992068198	-0.677850315288757
22	0.7333333333333333	-0.232189835746022	1.8194000545325695	-0.5039903474536114	-0.24903756183958706	1.8192831093275241	-0.4362145356359367	-0.2527965491659693	1.6739183738579753	-0.4113090556152132													-0.2119834382725846	1.821212075930907	-0.5656880205282945	-0.21485032006765745	1.6794186566840108	-0.5318752467398058				-0.35335769709935605	1.4831912087162533	-0.9785916171265376							-0.22636247617584448	1.9909190337034641	-0.5369301987769455	-0.21203686460796262	2.057787206915415	-0.4889936416999472	-0.25033151884848587	1.9915277145700068	-0.4502117404029972	-0.25422099137889653	1.9210130983552534	-0.36408935708215884	-0.2250346016642985	1.9995991182774657	-0.4231017122235471	-0.19640347521462193	1.9920065093025738	-0.6313824560288641	-0.18639218906517951	1.8993983202624414	-0.6678023631759239	-0.17672116235880161	1.8077925401155717	-0.6692327045704136
23	0.7666666666666667	-0.2324670985726186	1.823482416044255	-0.5045124459689971	-0.2524198156193644	1.8235863850747824	-0.4378211584547822	-0.2527965491659693	1.6739183738579753	-0.4113090556152132													-0.2153825207181106	1.8250219081992969	-0.5668390087382502	-0.21547890891690305	1.681179706167181	-0.5343238603808378				-0.35335769709935605	1.4831912087162533	-0.9785916171265376							-0.22650785394371056	1.9922091331544693	-0.537228123319488	-0.21308264198994167	2.0568905430685276	-0.49236888408331464	-0.25220699082264003	1.9924302462607795	-0.44810437194796565	-0.25339806209740323	1.9213979859450818	-0.36963844024578973	-0.23877211654911717	1.984760660719487	-0.4120512382409677	-0.1965178797443075	1.993202662982796	-0.6316791492143112	-0.18647365618893982	1.9041306791162587	-0.6683911018436464	-0.1751563984517709	1.8189467286364451	-0.6426999729663456
24	0.8	-0.23598693488684935	1.818947314922792	-0.49948728220424166	-0.25280824548093395	1.8183970509710687	-0.4317922260788322	-0.2527965491659693	1.6739183738579753	-0.4113090556152132													-0.22206687053481855	1.8211811366513142	-0.5626306634762644	-0.21610749776614865	1.6829407556503513	-0.5367724740218698				-0.35335769709935605	1.4831912087162533	-0.9785916171265376							-0.23037344999909098	1.991935262154494	-0.5324163654061785	-0.2140694499184112	2.056885725737433	-0.4955759445822752	-0.2540392075442608	1.9936805503817747	-0.44570301039043203	-0.25035671385902153	1.9241966787523561	-0.37751145188501434	-0.22520670236740079	2.0075875663192493	-0.43385139192676486	-0.20369245625868004	1.9928233913722566	-0.6280704030745587	-0.18749200573580554	1.9083336691462296	-0.6632680383353009	-0.17299440047603312	1.8300449397463592	-0.5954168737712981
